<svg xmlns="http://www.w3.org/2000/svg" enable-background="new 0 0 256 256" viewBox="0 0 256 256" id="dribbble"><circle cx="128" cy="128" r="113.676" fill="#FF4A73"></circle><path fill="#F973A3" d="M136.908,241.333c-2.934,0.226-5.903,0.344-8.908,0.344c-62.783,0-113.677-50.894-113.677-113.677
					S65.217,14.323,128,14.323c3.005,0,5.974,0.119,8.908,0.344C78.282,19.216,32.138,68.222,32.138,128
					C32.138,187.778,78.282,236.784,136.908,241.333z"></path><path fill="#EA2A6A" d="M241.677,128c0,62.783-50.894,113.677-113.677,113.677c-3.005,0-5.974-0.119-8.908-0.344
					c58.626-4.549,104.77-53.555,104.77-113.333c0-59.778-46.143-108.784-104.77-113.333c2.934-0.226,5.903-0.344,8.908-0.344
					C190.783,14.323,241.677,65.217,241.677,128z"></path><g><path fill="#5F266D" d="M128,10.324C63.164,10.324,10.324,63.07,10.324,128c0,64.954,52.879,117.676,117.676,117.676
			c64.986,0,117.676-52.915,117.676-117.676C245.676,63.14,192.887,10.324,128,10.324z M206.065,51.046
			c-16.256,21.343-40.315,35.189-65.902,44.133c-13.579-25.802-29.942-51.856-44.539-71.975
			C133.768,11.394,176.542,21.101,206.065,51.046z M87.741,25.978c5.867,7.986,25.316,35.302,44.642,71.764
			c-34.803,10.752-77.301,14.565-112.691,12.962C25.847,72.024,52.291,40.016,87.741,25.978z M18.324,128
			c0-3.144,0.141-6.255,0.401-9.333c36.964,1.755,81.156-2.331,117.386-13.775c4.642,9.065,9.225,18.624,13.556,28.532
			c-42.21,11.139-77.522,40.334-97.855,73.39C31.177,186.859,18.324,158.904,18.324,128z M128,237.676
			c-26.644,0-51.096-9.554-70.12-25.411c19.758-32.813,54.622-61.196,94.912-71.512c11.33,27.184,20.477,56.657,23.671,85.615
			C161.841,233.602,145.388,237.676,128,237.676z M184.036,222.244c-3.579-28.609-12.645-57.392-23.312-83.296
			c23.631-4.671,49.049-3.677,76.071,2.983C232.449,176.067,212.346,205.347,184.036,222.244z M157.609,131.557
			c-4.473-10.354-9.147-20.172-13.762-29.253c26.046-9.255,50.632-23.498,67.692-45.281c17.579,20.66,27.524,47.737,25.978,76.851
			C209.428,127.121,182.583,126.347,157.609,131.557z"></path><path fill="#5F266D" d="M124.182 212.533c-21.673-.136-38.729-10.7-38.898-10.806-1.865-1.177-4.335-.62-5.514 1.246-1.181 1.867-.624 4.338 1.243 5.519.768.485 19.079 11.89 43.118 12.042 2.298 0 4.012-1.839 4.025-3.975C128.17 214.349 126.391 212.547 124.182 212.533zM135.139 215.858c.469 2.157 2.596 3.529 4.758 3.061 8.636-1.875 16.855-5.403 24.43-10.487 1.834-1.231 2.323-3.716 1.092-5.551-1.231-1.834-3.717-2.323-5.551-1.092-6.732 4.52-14.022 7.652-21.668 9.312C136.04 211.569 134.67 213.699 135.139 215.858z"></path></g></svg>